<svg width="120" height="40" viewBox="0 0 120 40" fill="none" xmlns="http://www.w3.org/2000/svg">
<path d="M46.9545 14.5455V17.7273H36.6364V14.5455H46.9545ZM39.2159 32V12.8977C39.2159 11.7235 39.4583 10.7462 39.9432 9.96591C40.4356 9.18561 41.0947 8.60227 41.9205 8.21591C42.7462 7.82954 43.6629 7.63636 44.6705 7.63636C45.3826 7.63636 46.0152 7.69318 46.5682 7.80682C47.1212 7.92045 47.5303 8.02273 47.7955 8.11364L46.9773 11.2955C46.803 11.2424 46.5833 11.1894 46.3182 11.1364C46.053 11.0758 45.7576 11.0455 45.4318 11.0455C44.6667 11.0455 44.125 11.2311 43.8068 11.6023C43.4962 11.9659 43.3409 12.4886 43.3409 13.1705V32H39.2159ZM50.1761 32V14.5455H54.2898V32H50.1761ZM52.2443 12.0682C51.5928 12.0682 51.0322 11.8523 50.5625 11.4205C50.0928 10.9811 49.858 10.4545 49.858 9.84091C49.858 9.2197 50.0928 8.69318 50.5625 8.26136C51.0322 7.82197 51.5928 7.60227 52.2443 7.60227C52.9034 7.60227 53.464 7.82197 53.9261 8.26136C54.3958 8.69318 54.6307 9.2197 54.6307 9.84091C54.6307 10.4545 54.3958 10.9811 53.9261 11.4205C53.464 11.8523 52.9034 12.0682 52.2443 12.0682ZM67.3608 14.5455V17.7273H57.0426V14.5455H67.3608ZM59.6222 32V12.8977C59.6222 11.7235 59.8646 10.7462 60.3494 9.96591C60.8419 9.18561 61.5009 8.60227 62.3267 8.21591C63.1525 7.82954 64.0691 7.63636 65.0767 7.63636C65.7888 7.63636 66.4214 7.69318 66.9744 7.80682C67.5275 7.92045 67.9366 8.02273 68.2017 8.11364L67.3835 11.2955C67.2093 11.2424 66.9896 11.1894 66.7244 11.1364C66.4593 11.0758 66.1638 11.0455 65.8381 11.0455C65.0729 11.0455 64.5313 11.2311 64.2131 11.6023C63.9025 11.9659 63.7472 12.4886 63.7472 13.1705V32H59.6222ZM79.2983 14.5455V17.7273H69.2642V14.5455H79.2983ZM71.7415 10.3636H75.8551V26.75C75.8551 27.303 75.9384 27.7273 76.1051 28.0227C76.2794 28.3106 76.5066 28.5076 76.7869 28.6136C77.0672 28.7197 77.3778 28.7727 77.7188 28.7727C77.9763 28.7727 78.2112 28.7538 78.4233 28.7159C78.643 28.678 78.8097 28.6439 78.9233 28.6136L79.6165 31.8295C79.3968 31.9053 79.0824 31.9886 78.6733 32.0795C78.2718 32.1705 77.7794 32.2235 77.196 32.2386C76.1657 32.2689 75.2377 32.1136 74.4119 31.7727C73.5862 31.4242 72.9309 30.8864 72.446 30.1591C71.9688 29.4318 71.7339 28.5227 71.7415 27.4318V10.3636ZM82.7386 32V14.5455H86.8523V32H82.7386ZM84.8068 12.0682C84.1553 12.0682 83.5947 11.8523 83.125 11.4205C82.6553 10.9811 82.4205 10.4545 82.4205 9.84091C82.4205 9.2197 82.6553 8.69318 83.125 8.26136C83.5947 7.82197 84.1553 7.60227 84.8068 7.60227C85.4659 7.60227 86.0265 7.82197 86.4886 8.26136C86.9583 8.69318 87.1932 9.2197 87.1932 9.84091C87.1932 10.4545 86.9583 10.9811 86.4886 11.4205C86.0265 11.8523 85.4659 12.0682 84.8068 12.0682ZM99.9233 14.5455V17.7273H89.6051V14.5455H99.9233ZM92.1847 32V12.8977C92.1847 11.7235 92.4271 10.7462 92.9119 9.96591C93.4044 9.18561 94.0634 8.60227 94.8892 8.21591C95.715 7.82954 96.6316 7.63636 97.6392 7.63636C98.3513 7.63636 98.9839 7.69318 99.5369 7.80682C100.09 7.92045 100.499 8.02273 100.764 8.11364L99.946 11.2955C99.7718 11.2424 99.5521 11.1894 99.2869 11.1364C99.0218 11.0758 98.7263 11.0455 98.4006 11.0455C97.6354 11.0455 97.0938 11.2311 96.7756 11.6023C96.465 11.9659 96.3097 12.4886 96.3097 13.1705V32H92.1847ZM105.702 38.5455C105.141 38.5455 104.622 38.5 104.145 38.4091C103.675 38.3258 103.3 38.2273 103.02 38.1136L103.974 34.9091C104.573 35.0833 105.107 35.1667 105.577 35.1591C106.046 35.1515 106.459 35.0038 106.815 34.7159C107.179 34.4356 107.486 33.9659 107.736 33.3068L108.088 32.3636L101.759 14.5455H106.122L110.145 27.7273H110.327L114.361 14.5455H118.736L111.747 34.1136C111.421 35.0379 110.99 35.8295 110.452 36.4886C109.914 37.1553 109.255 37.6629 108.474 38.0114C107.702 38.3674 106.777 38.5455 105.702 38.5455Z" fill="#020617"/>
<path d="M0 10C0 6.68629 2.68629 4 6 4H26C29.3137 4 32 6.68629 32 10V30C32 33.3137 29.3137 36 26 36H6C2.68629 36 0 33.3137 0 30V10Z" fill="#0F172A"/>
<path d="M11.0739 16.0909V18.3636H4.34091V16.0909H11.0739ZM5.8821 27V15.3026C5.8821 14.5118 6.03598 13.8561 6.34375 13.3352C6.65625 12.8144 7.08239 12.4238 7.62216 12.1634C8.16193 11.9029 8.77509 11.7727 9.46165 11.7727C9.92566 11.7727 10.3494 11.8082 10.733 11.8793C11.1212 11.9503 11.41 12.0142 11.5994 12.071L11.0597 14.3438C10.9413 14.3059 10.7945 14.2704 10.6193 14.2372C10.4489 14.2041 10.2737 14.1875 10.0938 14.1875C9.64867 14.1875 9.33854 14.2917 9.16335 14.5C8.98816 14.7036 8.90057 14.9901 8.90057 15.3594V27H5.8821ZM18.7887 16.0909V18.3636H12.0558V16.0909H18.7887ZM13.5969 27V15.3026C13.5969 14.5118 13.7508 13.8561 14.0586 13.3352C14.3711 12.8144 14.7972 12.4238 15.337 12.1634C15.8768 11.9029 16.4899 11.7727 17.1765 11.7727C17.6405 11.7727 18.0643 11.8082 18.4478 11.8793C18.8361 11.9503 19.1249 12.0142 19.3143 12.071L18.7745 14.3438C18.6561 14.3059 18.5094 14.2704 18.3342 14.2372C18.1637 14.2041 17.9885 14.1875 17.8086 14.1875C17.3635 14.1875 17.0534 14.2917 16.8782 14.5C16.703 14.7036 16.6154 14.9901 16.6154 15.3594V27H13.5969ZM26.5036 16.0909V18.3636H19.7706V16.0909H26.5036ZM21.3118 27V15.3026C21.3118 14.5118 21.4657 13.8561 21.7734 13.3352C22.0859 12.8144 22.5121 12.4238 23.0518 12.1634C23.5916 11.9029 24.2048 11.7727 24.8913 11.7727C25.3554 11.7727 25.7791 11.8082 26.1626 11.8793C26.5509 11.9503 26.8397 12.0142 27.0291 12.071L26.4893 14.3438C26.371 14.3059 26.2242 14.2704 26.049 14.2372C25.8786 14.2041 25.7034 14.1875 25.5234 14.1875C25.0784 14.1875 24.7682 14.2917 24.593 14.5C24.4179 14.7036 24.3303 14.9901 24.3303 15.3594V27H21.3118Z" fill="#F8FAFC"/>
</svg>
